<?xml version="1.0" encoding="UTF-8" standalone="no"?>
<!-- Created with Inkscape (http://www.inkscape.org/) -->

<svg
   xmlns:dc="http://purl.org/dc/elements/1.1/"
   xmlns:cc="http://creativecommons.org/ns#"
   xmlns:rdf="http://www.w3.org/1999/02/22-rdf-syntax-ns#"
   xmlns:svg="http://www.w3.org/2000/svg"
   xmlns="http://www.w3.org/2000/svg"
   xmlns:xlink="http://www.w3.org/1999/xlink"
   xmlns:sodipodi="http://sodipodi.sourceforge.net/DTD/sodipodi-0.dtd"
   xmlns:inkscape="http://www.inkscape.org/namespaces/inkscape"
   width="1380"
   height="1380.0033"
   viewBox="0 0 365.12501 365.12585"
   version="1.1"
   id="svg8"
   inkscape:version="0.92.4 (5da689c313, 2019-01-14)"
   sodipodi:docname="Color.svg"
   inkscape:export-filename="E:\Clients\Q1_2020\Fazt\Logo Files\Code\Full Logo\Monotone.png"
   inkscape:export-xdpi="96"
   inkscape:export-ydpi="96">
  <defs
     id="defs2">
    <linearGradient
       inkscape:collect="always"
       xlink:href="#linearGradient955"
       id="linearGradient1536"
       gradientUnits="userSpaceOnUse"
       gradientTransform="matrix(17.587489,0,0,17.587489,-31182.835,-746.65411)"
       x1="1736.6061"
       y1="19.774635"
       x2="1747.6818"
       y2="38.958199" />
    <linearGradient
       inkscape:collect="always"
       id="linearGradient955">
      <stop
         style="stop-color:#ff002a;stop-opacity:1;"
         offset="0"
         id="stop951" />
      <stop
         style="stop-color:#660058;stop-opacity:1"
         offset="1"
         id="stop953" />
    </linearGradient>
    <linearGradient
       inkscape:collect="always"
       xlink:href="#linearGradient1226"
       id="linearGradient1538"
       gradientUnits="userSpaceOnUse"
       x1="6582.1729"
       y1="691.62292"
       x2="6608.7061"
       y2="706.94177"
       gradientTransform="matrix(4.9966294,0,0,4.9966294,-33447.657,-3691.8602)" />
    <linearGradient
       inkscape:collect="always"
       id="linearGradient1226">
      <stop
         style="stop-color:#560037;stop-opacity:1;"
         offset="0"
         id="stop1222" />
      <stop
         style="stop-color:#560037;stop-opacity:0;"
         offset="1"
         id="stop1224" />
    </linearGradient>
  </defs>
  <sodipodi:namedview
     id="base"
     pagecolor="#eeeeee"
     bordercolor="#666666"
     borderopacity="1.0"
     inkscape:pageopacity="0"
     inkscape:pageshadow="2"
     inkscape:zoom="0.25"
     inkscape:cx="1069.1577"
     inkscape:cy="359.01204"
     inkscape:document-units="px"
     inkscape:current-layer="layer2"
     showgrid="false"
     fit-margin-top="50"
     fit-margin-left="50"
     fit-margin-right="50"
     fit-margin-bottom="50"
     inkscape:showpageshadow="false"
     borderlayer="true"
     inkscape:window-width="1920"
     inkscape:window-height="1017"
     inkscape:window-x="1912"
     inkscape:window-y="-8"
     inkscape:window-maximized="1"
     inkscape:snap-smooth-nodes="true"
     inkscape:snap-global="true"
     showborder="true"
     units="px"
     inkscape:snap-page="true" />
  <metadata
     id="metadata5">
    <rdf:RDF>
      <cc:Work
         rdf:about="">
        <dc:format>image/svg+xml</dc:format>
        <dc:type
           rdf:resource="http://purl.org/dc/dcmitype/StillImage" />
        <dc:title></dc:title>
      </cc:Work>
    </rdf:RDF>
  </metadata>
  <g
     inkscape:groupmode="layer"
     id="layer2"
     inkscape:label="Layer 1"
     transform="translate(731.58846,405.27077)">
    <path
       inkscape:connector-curvature="0"
       id="circle1524"
       d="m -379.69263,-222.70782 a 169.33376,169.33376 0 0 1 -169.33332,169.333751 169.33376,169.33376 0 0 1 -169.33334,-169.333751 169.33376,169.33376 0 0 1 169.33334,-169.33378 169.33376,169.33376 0 0 1 169.33332,169.33378 z"
       style="fill:url(#linearGradient1536);fill-opacity:1;stroke-width:0.26458329" />
    <path
       inkscape:connector-curvature="0"
       style="fill:url(#linearGradient1538);fill-opacity:1;stroke:none;stroke-width:0.26458329px;stroke-linecap:butt;stroke-linejoin:miter;stroke-opacity:1"
       d="m -475.51422,-304.02838 -30.45844,14.87277 -86.19187,0.62459 74.16898,74.48101 -71.35789,1.4053 -0.62455,60.59386 -20.09396,17.31258 80.08248,80.082675 a 169.33375,169.33375 0 0 0 149.60608,-154.241665 z"
       id="path1526" />
    <path
       class="st13"
       d="m -516.21343,-277.70181 c 4.11124,7.88418 12.33937,13.02591 21.59297,13.02591 13.36864,0 24.337,-10.96917 24.337,-24.33778 0,-13.36872 -10.96836,-24.33778 -24.337,-24.33778 -9.2536,0 -17.13804,5.14173 -21.25305,12.68309 h -53.13077 c -4.11503,-7.54136 -11.99759,-12.68309 -21.25308,-12.68309 -13.3686,0 -24.33696,10.96906 -24.33696,24.33778 0,13.36861 10.96836,24.33778 24.33696,24.33778 1.01978,0 1.69966,0 2.40028,0 l 44.90452,41.47712 h -47.3048 c -6.17159,0 -11.31392,5.14169 -11.31392,11.31184 v 41.47714 c -7.53888,4.11344 -13.02304,11.99749 -13.02304,21.59555 0,13.3686 10.96836,24.3378 24.33696,24.3378 13.37052,0 24.33697,-10.9692 24.33697,-24.3378 0,-9.25527 -5.14045,-17.48211 -13.02301,-21.59555 v -30.16512 h 42.50425 c 4.45492,6.51294 11.65576,10.62641 20.22572,10.62641 13.36484,0 24.33508,-10.96923 24.33508,-24.33781 0,-13.36869 -10.97024,-24.33789 -24.33508,-24.33789 -2.74399,0 -5.14427,0.34331 -7.88635,1.37121 l -44.21898,-40.79148 h 52.10533 z"
       id="path1528"
       inkscape:connector-curvature="0"
       style="fill:#ffffff;stroke-width:0.26458329" />
  </g>
</svg>
