<?xml version="1.0" encoding="UTF-8" standalone="no"?>
<!-- Created with Inkscape (http://www.inkscape.org/) -->

<svg
   xmlns:dc="http://purl.org/dc/elements/1.1/"
   xmlns:cc="http://creativecommons.org/ns#"
   xmlns:rdf="http://www.w3.org/1999/02/22-rdf-syntax-ns#"
   xmlns:svg="http://www.w3.org/2000/svg"
   xmlns="http://www.w3.org/2000/svg"
   xmlns:xlink="http://www.w3.org/1999/xlink"
   xmlns:sodipodi="http://sodipodi.sourceforge.net/DTD/sodipodi-0.dtd"
   xmlns:inkscape="http://www.inkscape.org/namespaces/inkscape"
   width="1380"
   height="1379.9723"
   viewBox="0 0 365.12501 365.11766"
   version="1.1"
   id="svg8"
   inkscape:version="0.92.4 (5da689c313, 2019-01-14)"
   sodipodi:docname="Color.svg"
   inkscape:export-filename="E:\Clients\Q1_2020\Fazt\Logo Files\Tech\Full Logo\Monotone.png"
   inkscape:export-xdpi="96"
   inkscape:export-ydpi="96">
  <defs
     id="defs2">
    <linearGradient
       inkscape:collect="always"
       xlink:href="#linearGradient955"
       id="linearGradient1532"
       gradientUnits="userSpaceOnUse"
       gradientTransform="matrix(14.761426,0,0,14.761426,21679.28,-3879.6622)"
       x1="-1510.7195"
       y1="244.31242"
       x2="-1497.2827"
       y2="267.58566" />
    <linearGradient
       inkscape:collect="always"
       id="linearGradient955">
      <stop
         style="stop-color:#ff002a;stop-opacity:1;"
         offset="0"
         id="stop951" />
      <stop
         style="stop-color:#660058;stop-opacity:1"
         offset="1"
         id="stop953" />
    </linearGradient>
    <linearGradient
       inkscape:collect="always"
       xlink:href="#linearGradient1226"
       id="linearGradient1534"
       gradientUnits="userSpaceOnUse"
       gradientTransform="matrix(4.1919432,0,0,4.1919432,4320.3226,-1460.2105)"
       x1="-1143.5978"
       y1="318.86496"
       x2="-1115.9246"
       y2="346.53812" />
    <linearGradient
       inkscape:collect="always"
       id="linearGradient1226">
      <stop
         style="stop-color:#560037;stop-opacity:1;"
         offset="0"
         id="stop1222" />
      <stop
         style="stop-color:#560037;stop-opacity:0;"
         offset="1"
         id="stop1224" />
    </linearGradient>
  </defs>
  <sodipodi:namedview
     id="base"
     pagecolor="#eeeeee"
     bordercolor="#666666"
     borderopacity="1.0"
     inkscape:pageopacity="0"
     inkscape:pageshadow="2"
     inkscape:zoom="0.25"
     inkscape:cx="471.91975"
     inkscape:cy="723.62963"
     inkscape:document-units="px"
     inkscape:current-layer="layer2"
     showgrid="false"
     fit-margin-top="50"
     fit-margin-left="50"
     fit-margin-right="50"
     fit-margin-bottom="50"
     inkscape:showpageshadow="false"
     borderlayer="true"
     inkscape:window-width="1920"
     inkscape:window-height="1017"
     inkscape:window-x="1912"
     inkscape:window-y="-8"
     inkscape:window-maximized="1"
     inkscape:snap-smooth-nodes="true"
     inkscape:snap-global="true"
     showborder="true"
     units="px"
     inkscape:snap-page="true" />
  <metadata
     id="metadata5">
    <rdf:RDF>
      <cc:Work
         rdf:about="">
        <dc:format>image/svg+xml</dc:format>
        <dc:type
           rdf:resource="http://purl.org/dc/dcmitype/StillImage" />
        <dc:title></dc:title>
      </cc:Work>
    </rdf:RDF>
  </metadata>
  <g
     inkscape:groupmode="layer"
     id="layer2"
     inkscape:label="Layer 1"
     transform="translate(718.35957,269.7667)">
    <path
       inkscape:connector-curvature="0"
       style="opacity:1;vector-effect:none;fill:url(#linearGradient1532);fill-opacity:1;fill-rule:nonzero;stroke:none;stroke-width:3.17499995;stroke-linecap:round;stroke-linejoin:round;stroke-miterlimit:4;stroke-dasharray:none;stroke-dashoffset:0;stroke-opacity:1;marker:none;paint-order:normal"
       d="M -535.79706,-256.53753 A 169.33074,169.33074 0 0 0 -705.1304,-87.210223 169.33074,169.33074 0 0 0 -535.79706,82.121812 169.33074,169.33074 0 0 0 -366.46373,-87.210223 169.33074,169.33074 0 0 0 -535.79706,-256.53753 Z"
       id="path1482" />
    <path
       inkscape:connector-curvature="0"
       style="fill:url(#linearGradient1534);fill-opacity:1;stroke:none;stroke-width:0.26458332px;stroke-linecap:butt;stroke-linejoin:miter;stroke-opacity:1"
       d="m -560.73383,-188.67703 -21.80179,23.66569 1.66887,2.6642 -34.57617,7.02651 28.06706,28.07676 -43.62307,-10.17868 -10.82269,10.8228 -4.43053,53.518599 4.41103,31.570505 122.80769,122.798018 a 169.33073,169.33073 0 0 0 152.15333,-156.80828 l -62.90656,-62.916562 -7.52442,1.68831 -18.69837,-18.69833 c 0,0 -17.43824,0.37924 -37.70907,0.20486 l 2.41086,-1.337 -31.62914,-31.62906 -19.11813,18.21036 v 0 z"
       id="path1484" />
    <path
       inkscape:connector-curvature="0"
       id="path1503"
       d="m -535.79518,-194.62239 a 20.554966,29.11893 0 0 0 -20.55054,29.11791 20.554966,29.11893 0 0 0 2.68166,14.31377 27.234857,32.516135 0 0 1 -9.36692,-24.50571 27.234857,32.516135 0 0 1 2.29643,-12.97961 105.32594,104.67207 0 0 0 -54.71335,33.30603 c 5.46341,5.01615 19.10586,14.11996 34.18923,19.16455 -15.74247,-2.1417 -29.85702,-5.83438 -41.052,-10.71323 -11.41969,2.59403 -20.00098,6.45187 -22.49379,12.77639 -5.52573,14.01818 -8.69084,28.84149 -8.69084,43.895547 v 0.06233 c 0.18895,15.367831 3.11979,30.579579 9.07987,44.761461 0.69874,1.657338 1.75627,3.145108 3.08388,4.35597 13.25721,12.029492 30.9769,21.227685 51.61245,27.015018 5.59558,1.569525 11.39324,2.181264 17.08327,2.067556 -4.53426,1.007134 -9.1875,1.537986 -13.83698,1.449038 -8.08651,-0.164291 -15.85575,-0.917615 -23.21898,-2.235403 a 105.32594,104.67207 0 0 0 73.90228,30.217914 105.32594,104.67207 0 0 0 73.98537,-30.23561 c -7.39155,1.326097 -15.18157,2.088933 -23.30395,2.253099 -4.64757,0.09441 -9.30081,-0.443038 -13.83698,-1.449038 5.68814,0.109547 11.48013,-0.499692 17.07196,-2.067556 20.63363,-5.787333 38.35332,-14.985526 51.61053,-27.015018 1.34084,-1.2109 2.38705,-2.698577 3.08013,-4.35597 5.96007,-14.182128 8.92879,-29.39363 9.08365,-44.761461 v -0.06233 c -0.18894,-15.054057 -3.16322,-29.877367 -8.69084,-43.895547 -2.49092,-6.32423 -11.06845,-10.18659 -22.48435,-12.78081 -11.19875,4.88055 -25.30956,8.57552 -41.05767,10.71765 15.191,-5.08083 28.92977,-14.28329 34.31008,-19.27499 a 105.32594,104.67207 0 0 0 -54.87196,-33.32368 27.234857,32.516135 0 0 1 2.32851,13.1077 27.234857,32.516135 0 0 1 -9.31215,24.43942 20.554966,29.11893 0 0 0 2.63444,-14.24748 20.554966,29.11893 0 0 0 -20.55244,-29.11791 z m 97.53296,65.12321 a 105.30545,104.59168 0 0 1 7.7787,39.278913 105.30545,104.59168 0 0 1 -8.03176,39.954876 c -11.48957,10.460685 -27.57005,18.973961 -46.71179,24.342239 -10.01466,2.807334 -23.56648,1.918951 -29.7324,-2.231005 -6.89677,-4.639568 -12.50178,-6.543977 -20.83004,-6.57816 -8.33011,0.02083 -13.93706,1.938592 -20.83005,6.57816 -6.16591,4.149956 -19.7215,5.038585 -29.73236,2.231005 -19.09264,-5.353568 -35.13348,-13.836966 -46.61929,-24.258296 a 105.30545,104.59168 0 0 1 -8.12238,-40.038819 105.30545,104.59168 0 0 1 7.77491,-39.274493 c 21.19829,12.94664 57.71415,20.99027 97.52917,21.02449 39.81125,-0.0208 76.32899,-8.0815 97.52729,-21.02891 z m -156.95805,22.4249 -16.83591,62.446051 c 7.94299,4.494547 17.13995,8.335982 27.35669,11.234512 l 18.60349,-68.984403 c -10.21294,-1.04528 -19.98211,-2.61901 -29.12427,-4.69616 z m 37.66404,5.45161 -18.76593,69.594066 c 1.92626,0.126531 3.87139,0.109547 5.71835,-0.0043 1.7563,-0.126531 3.43706,-0.409613 4.8912,-0.74671 l 18.40899,-68.290796 c -3.45028,-0.12841 -6.87223,-0.30782 -10.25261,-0.55238 z"
       style="color:#000000;font-style:normal;font-variant:normal;font-weight:normal;font-stretch:normal;font-size:medium;line-height:normal;font-family:sans-serif;font-variant-ligatures:normal;font-variant-position:normal;font-variant-caps:normal;font-variant-numeric:normal;font-variant-alternates:normal;font-feature-settings:normal;text-indent:0;text-align:start;text-decoration:none;text-decoration-line:none;text-decoration-style:solid;text-decoration-color:#000000;letter-spacing:normal;word-spacing:normal;text-transform:none;writing-mode:lr-tb;direction:ltr;text-orientation:mixed;dominant-baseline:auto;baseline-shift:baseline;text-anchor:start;white-space:normal;shape-padding:0;clip-rule:nonzero;display:inline;overflow:visible;visibility:visible;opacity:1;isolation:auto;mix-blend-mode:normal;color-interpolation:sRGB;color-interpolation-filters:linearRGB;solid-color:#000000;solid-opacity:1;vector-effect:none;fill:#ffffff;fill-opacity:1;fill-rule:nonzero;stroke:none;stroke-width:6.61458349;stroke-linecap:round;stroke-linejoin:round;stroke-miterlimit:4;stroke-dasharray:none;stroke-dashoffset:0;stroke-opacity:1;marker:none;paint-order:normal;color-rendering:auto;image-rendering:auto;shape-rendering:auto;text-rendering:auto;enable-background:accumulate" />
  </g>
</svg>
