<?xml version="1.0" encoding="UTF-8" standalone="no"?>
<!-- Created with Inkscape (http://www.inkscape.org/) -->

<svg
   xmlns:dc="http://purl.org/dc/elements/1.1/"
   xmlns:cc="http://creativecommons.org/ns#"
   xmlns:rdf="http://www.w3.org/1999/02/22-rdf-syntax-ns#"
   xmlns:svg="http://www.w3.org/2000/svg"
   xmlns="http://www.w3.org/2000/svg"
   xmlns:sodipodi="http://sodipodi.sourceforge.net/DTD/sodipodi-0.dtd"
   xmlns:inkscape="http://www.inkscape.org/namespaces/inkscape"
   width="1380"
   height="1379.9723"
   viewBox="0 0 365.12501 365.11766"
   version="1.1"
   id="svg8"
   inkscape:version="0.92.4 (5da689c313, 2019-01-14)"
   sodipodi:docname="Monotone.svg"
   inkscape:export-filename="E:\Clients\Q1_2020\Fazt\Logo Files\Tech\Icon\Color.png"
   inkscape:export-xdpi="96"
   inkscape:export-ydpi="96">
  <defs
     id="defs2" />
  <sodipodi:namedview
     id="base"
     pagecolor="#eeeeee"
     bordercolor="#666666"
     borderopacity="1.0"
     inkscape:pageopacity="0"
     inkscape:pageshadow="2"
     inkscape:zoom="0.25"
     inkscape:cx="471.91975"
     inkscape:cy="723.62963"
     inkscape:document-units="px"
     inkscape:current-layer="layer2"
     showgrid="false"
     fit-margin-top="50"
     fit-margin-left="50"
     fit-margin-right="50"
     fit-margin-bottom="50"
     inkscape:showpageshadow="false"
     borderlayer="true"
     inkscape:window-width="1920"
     inkscape:window-height="1017"
     inkscape:window-x="1912"
     inkscape:window-y="-8"
     inkscape:window-maximized="1"
     inkscape:snap-smooth-nodes="true"
     inkscape:snap-global="true"
     showborder="true"
     units="px"
     inkscape:snap-page="true" />
  <metadata
     id="metadata5">
    <rdf:RDF>
      <cc:Work
         rdf:about="">
        <dc:format>image/svg+xml</dc:format>
        <dc:type
           rdf:resource="http://purl.org/dc/dcmitype/StillImage" />
        <dc:title></dc:title>
      </cc:Work>
    </rdf:RDF>
  </metadata>
  <g
     inkscape:groupmode="layer"
     id="layer2"
     inkscape:label="Layer 1"
     transform="translate(718.35957,269.7667)">
    <path
       style="opacity:1;vector-effect:none;fill:#000000;fill-opacity:1;fill-rule:nonzero;stroke:none;stroke-width:12;stroke-linecap:round;stroke-linejoin:round;stroke-miterlimit:4;stroke-dasharray:none;stroke-dashoffset:0;stroke-opacity:1;marker:none;paint-order:normal"
       d="M 690 50 A 639.9902 639.9902 0 0 0 50 689.97656 A 639.9902 639.9902 0 0 0 690 1329.9727 A 639.9902 639.9902 0 0 0 1330 689.97656 A 639.9902 639.9902 0 0 0 690 50 z M 690.00781 284.00977 A 77.68806 110.0558 0 0 1 767.68555 394.0625 A 77.68806 110.0558 0 0 1 757.72852 447.91016 A 102.93489 122.89563 0 0 0 792.92383 355.54102 A 102.93489 122.89563 0 0 0 784.12305 306 A 398.08229 395.61097 0 0 1 991.51367 431.94727 C 971.17864 450.81353 919.25269 485.59569 861.83789 504.79883 C 921.35831 496.70259 974.68964 482.73719 1017.0156 464.29102 C 1060.1623 474.09594 1092.5816 488.6931 1101.9961 512.5957 C 1122.8879 565.5778 1134.1296 621.60278 1134.8438 678.5 L 1134.8438 678.73633 C 1134.2585 736.81947 1123.038 794.31232 1100.5117 847.91406 C 1097.8922 854.17823 1093.9388 859.80032 1088.8711 864.37695 C 1038.7651 909.84275 971.79201 944.60708 893.80664 966.48047 C 872.67217 972.40625 850.78168 974.70896 829.2832 974.29492 C 846.42778 978.09713 864.01446 980.12831 881.58008 979.77148 C 912.27884 979.15101 941.72164 976.26788 969.6582 971.25586 A 398.08229 395.61097 0 0 1 690.0293 1085.5332 A 398.08229 395.61097 0 0 1 410.71289 971.32227 C 438.54242 976.30288 467.90556 979.15054 498.46875 979.77148 C 516.04159 980.10767 533.63022 978.10141 550.76758 974.29492 C 529.26195 974.72468 507.34982 972.41253 486.20117 966.48047 C 408.20854 944.60708 341.2349 909.84275 291.12891 864.37695 C 286.11117 859.80047 282.11552 854.17802 279.47461 847.91406 C 256.94832 794.31325 245.87039 736.81947 245.15625 678.73633 L 245.15625 678.5 C 245.15625 621.60278 257.11926 565.5778 278.00391 512.5957 C 287.42555 488.69201 319.8585 474.11085 363.01953 464.30664 C 405.33127 482.74639 458.67668 496.70421 518.17578 504.79883 C 461.16777 485.73266 409.60614 451.32391 388.95703 432.36523 A 398.08229 395.61097 0 0 1 595.74805 306.48438 A 102.93489 122.89563 0 0 0 587.06836 355.54102 A 102.93489 122.89563 0 0 0 622.4707 448.16211 A 77.68806 110.0558 0 0 1 612.33594 394.0625 A 77.68806 110.0558 0 0 1 690.00781 284.00977 z M 1058.6348 530.14453 C 978.51521 579.07962 840.49701 609.54639 690.0293 609.625 C 539.54733 609.49566 401.53358 579.09429 321.41406 530.16211 A 398.00485 395.30714 0 0 0 292.0293 678.60156 A 398.00485 395.30714 0 0 0 322.72852 829.92773 C 366.13945 869.31544 426.76462 901.37932 498.92578 921.61328 C 536.7621 932.22461 587.99655 928.86651 611.30078 913.18164 C 637.35303 895.64627 658.54542 888.39709 690.0293 888.31836 C 721.50618 888.44755 742.68933 895.64627 768.75586 913.18164 C 792.06012 928.86651 843.28018 932.22368 881.13086 921.61328 C 953.47759 901.32373 1014.2545 869.14778 1057.6797 829.61133 A 398.00485 395.30714 0 0 0 1088.0352 678.60156 A 398.00485 395.30714 0 0 0 1058.6348 530.14453 z M 465.4082 614.90039 C 499.96125 622.75104 536.88429 628.69973 575.48438 632.65039 L 505.17188 893.37891 C 466.55742 882.42383 431.79809 867.90523 401.77734 850.91797 L 465.4082 614.90039 z M 607.75977 635.50391 C 620.536 636.42823 633.46934 637.10647 646.50977 637.5918 L 576.93359 895.69922 C 571.43763 896.97329 565.08525 898.04326 558.44727 898.52148 C 551.46663 898.95177 544.11434 899.01534 536.83398 898.53711 L 607.75977 635.50586 L 607.75977 635.50391 z "
       transform="matrix(0.26458333,0,0,0.26458333,-718.35957,-269.7667)"
       id="path1482" />
  </g>
</svg>
