<?xml version="1.0" encoding="UTF-8" standalone="no"?>
<!-- Created with Inkscape (http://www.inkscape.org/) -->

<svg
   xmlns:dc="http://purl.org/dc/elements/1.1/"
   xmlns:cc="http://creativecommons.org/ns#"
   xmlns:rdf="http://www.w3.org/1999/02/22-rdf-syntax-ns#"
   xmlns:svg="http://www.w3.org/2000/svg"
   xmlns="http://www.w3.org/2000/svg"
   xmlns:xlink="http://www.w3.org/1999/xlink"
   xmlns:sodipodi="http://sodipodi.sourceforge.net/DTD/sodipodi-0.dtd"
   xmlns:inkscape="http://www.inkscape.org/namespaces/inkscape"
   width="1380"
   height="542.37671"
   viewBox="0 0 365.12501 143.50383"
   version="1.1"
   id="svg8"
   inkscape:version="0.92.4 (5da689c313, 2019-01-14)"
   sodipodi:docname="Color.svg"
   inkscape:export-filename="E:\Clients\Q1_2020\Fazt\Logo Files\Tech\Icon\Monotone.png"
   inkscape:export-xdpi="96"
   inkscape:export-ydpi="96">
  <defs
     id="defs2">
    <linearGradient
       inkscape:collect="always"
       xlink:href="#linearGradient955"
       id="linearGradient1536"
       gradientUnits="userSpaceOnUse"
       gradientTransform="matrix(6.0783405,0,0,6.0783405,-11247.063,-292.97577)"
       x1="1736.6061"
       y1="19.774635"
       x2="1747.6818"
       y2="38.958199" />
    <linearGradient
       inkscape:collect="always"
       id="linearGradient955">
      <stop
         style="stop-color:#ff002a;stop-opacity:1;"
         offset="0"
         id="stop951" />
      <stop
         style="stop-color:#660058;stop-opacity:1"
         offset="1"
         id="stop953" />
    </linearGradient>
    <linearGradient
       inkscape:collect="always"
       xlink:href="#linearGradient1226"
       id="linearGradient1538"
       gradientUnits="userSpaceOnUse"
       x1="6582.1729"
       y1="691.62292"
       x2="6608.7061"
       y2="706.94177"
       gradientTransform="matrix(1.7268648,0,0,1.7268648,-12029.799,-1310.8565)" />
    <linearGradient
       inkscape:collect="always"
       id="linearGradient1226">
      <stop
         style="stop-color:#560037;stop-opacity:1;"
         offset="0"
         id="stop1222" />
      <stop
         style="stop-color:#560037;stop-opacity:0;"
         offset="1"
         id="stop1224" />
    </linearGradient>
  </defs>
  <sodipodi:namedview
     id="base"
     pagecolor="#eeeeee"
     bordercolor="#666666"
     borderopacity="1.0"
     inkscape:pageopacity="0"
     inkscape:pageshadow="2"
     inkscape:zoom="0.70710678"
     inkscape:cx="702.16863"
     inkscape:cy="211.63887"
     inkscape:document-units="px"
     inkscape:current-layer="layer2"
     showgrid="false"
     fit-margin-top="50"
     fit-margin-left="50"
     fit-margin-right="50"
     fit-margin-bottom="50"
     inkscape:showpageshadow="false"
     borderlayer="true"
     inkscape:window-width="1920"
     inkscape:window-height="1017"
     inkscape:window-x="1912"
     inkscape:window-y="-8"
     inkscape:window-maximized="1"
     inkscape:snap-smooth-nodes="true"
     inkscape:snap-global="true"
     showborder="true"
     units="px"
     inkscape:snap-page="true" />
  <metadata
     id="metadata5">
    <rdf:RDF>
      <cc:Work
         rdf:about="">
        <dc:format>image/svg+xml</dc:format>
        <dc:type
           rdf:resource="http://purl.org/dc/dcmitype/StillImage" />
        <dc:title></dc:title>
      </cc:Work>
    </rdf:RDF>
  </metadata>
  <g
     inkscape:groupmode="layer"
     id="layer2"
     inkscape:label="Layer 1"
     transform="translate(731.58873,183.64874)">
    <path
       style="font-style:normal;font-variant:normal;font-weight:bold;font-stretch:normal;font-size:9.95161915px;line-height:1.25;font-family:'Microgramma Extd D';-inkscape-font-specification:'Microgramma Extd D, Bold';font-variant-ligatures:normal;font-variant-caps:normal;font-variant-numeric:normal;font-feature-settings:normal;text-align:start;letter-spacing:0px;word-spacing:0px;writing-mode:lr-tb;text-anchor:start;fill:#000000;fill-opacity:1;stroke:none;stroke-width:0.26458332"
       d="m -577.70863,-145.85003 -11.17062,41.68632 h 12.68811 l 3.86836,-14.43848 h 20.12309 l 7.61982,-9.5608 h -25.18032 l 2.10994,-7.87305 h 29.3465 l 7.82362,-9.81399 z m 54.08918,0 -33.23223,41.68632 h 14.49708 l 5.45537,-7.06181 h 27.56358 l 1.66679,7.06181 h 14.43942 l -10.64294,-41.68632 z m 26.05005,0 2.64079,10.3461 37.36839,-0.34718 -33.28437,20.28329 2.91174,11.40415 h 43.32142 l 2.79641,-10.43679 -31.55518,0.4381 36.42757,-22.12334 2.56258,-9.56403 z m 67.44084,0 -2.53967,9.48298 h 18.56214 l -8.62857,32.20334 h 13.31058 l 8.63016,-32.20334 h 18.56136 l 2.53968,-9.48298 z m -87.52601,9.68739 h 2.49939 l 3.82492,15.8111 h -18.62219 z"
       id="path1507"
       inkscape:connector-curvature="0" />
    <path
       id="path1509"
       d="m -590.38647,-98.543113 -5.47037,20.410783 h 198.01732 l 5.47038,-20.410783 z"
       style="opacity:1;vector-effect:none;fill:#1a1a1a;fill-opacity:1;fill-rule:nonzero;stroke:none;stroke-width:1.05833316;stroke-linecap:round;stroke-linejoin:miter;stroke-miterlimit:4;stroke-dasharray:none;stroke-dashoffset:0;stroke-opacity:1;marker:none;paint-order:normal"
       inkscape:connector-curvature="0" />
    <path
       d="m -482.70731,-87.014026 c -0.459,1.713024 -0.54264,1.730327 -4.39204,1.730327 -3.70248,0 -3.74534,-0.0346 -2.95252,-2.993465 0.46828,-1.747631 0.78339,-2.422459 1.29479,-2.768524 0.42176,-0.276852 1.07937,-0.346067 3.27621,-0.346067 2.388,0 3.32945,0.103822 3.45839,0.397974 0.0912,0.190338 0.0811,0.346068 -0.0682,1.020893 h 3.5121 l 0.153,-0.571004 c 0.51,-1.90336 0.35801,-2.75122 -0.56448,-3.253015 -0.69427,-0.380675 -1.7392,-0.48449 -4.71492,-0.48449 -5.95225,0 -7.31157,0.294161 -8.35905,1.747631 -0.45266,0.657527 -0.78992,1.591901 -1.50856,4.273908 -0.36628,1.366958 -0.62128,2.318638 -0.68138,2.837736 -0.21344,1.297745 -0.007,1.972573 0.72294,2.405155 0.82127,0.484489 2.23768,0.622919 6.63294,0.622919 2.64711,0 3.96007,-0.121122 4.97803,-0.432582 1.30952,-0.432582 2.00435,-1.280441 2.49117,-3.097285 0.0464,-0.17303 0.11591,-0.432583 0.29209,-1.090106 z"
       style="font-style:normal;font-variant:normal;font-weight:bold;font-stretch:normal;font-size:2.19043732px;line-height:1.25;font-family:'Microgramma Extd D';-inkscape-font-specification:'Microgramma Extd D, Bold';font-variant-ligatures:normal;font-variant-caps:normal;font-variant-numeric:normal;font-feature-settings:normal;text-align:start;letter-spacing:0.77845895px;word-spacing:0px;writing-mode:lr-tb;text-anchor:start;fill:#ffffff;fill-opacity:1;stroke:none;stroke-width:0.26458332"
       id="path1511"
       inkscape:connector-curvature="0" />
    <path
       d="m -462.09913,-94.2814 c -4.80998,0 -5.93256,0.121123 -6.99575,0.795951 -1.06319,0.674827 -1.63836,1.85145 -2.50073,5.069858 -0.90873,3.391441 -0.96985,4.533457 -0.25793,5.225588 0.70155,0.674827 1.74184,0.795951 6.60396,0.795951 4.77601,0 5.89859,-0.121123 6.96178,-0.795951 1.06319,-0.674828 1.63372,-1.834147 2.52391,-5.156375 0.88555,-3.304924 0.93551,-4.464243 0.23475,-5.139071 -0.70155,-0.674827 -1.74184,-0.795951 -6.56999,-0.795951 z m -0.8021,2.993466 c 3.253,0 3.63723,0.0519 3.86614,0.553705 0.20144,0.397975 0.11216,1.055499 -0.33294,2.716613 -0.37555,1.401566 -0.62849,1.90336 -1.11482,2.214819 -0.543,0.346067 -1.14926,0.415275 -3.97016,0.415275 -2.907,0 -3.44685,-0.0519 -3.81634,-0.415275 -0.30688,-0.32876 -0.30809,-0.79595 0.0767,-2.232122 0.62592,-2.335941 0.95923,-2.872343 1.88528,-3.097285 0.51896,-0.138423 1.011,-0.15573 3.39821,-0.15573 z"
       style="font-style:normal;font-variant:normal;font-weight:bold;font-stretch:normal;font-size:2.19043732px;line-height:1.25;font-family:'Microgramma Extd D';-inkscape-font-specification:'Microgramma Extd D, Bold';font-variant-ligatures:normal;font-variant-caps:normal;font-variant-numeric:normal;font-feature-settings:normal;text-align:start;letter-spacing:0.77845895px;word-spacing:0px;writing-mode:lr-tb;text-anchor:start;fill:#ffffff;fill-opacity:1;stroke:none;stroke-width:0.26458332"
       id="path1513"
       inkscape:connector-curvature="0" />
    <path
       d="m -449.77162,-82.567085 h 8.32287 c 3.89285,0 4.96062,-0.17303 6.05626,-0.968984 1.05625,-0.778649 1.63142,-1.955269 2.43815,-4.966038 0.50537,-1.886057 0.6211,-2.612794 0.58623,-3.426048 -0.0601,-1.072802 -0.64307,-1.730326 -1.72506,-1.955269 -0.93101,-0.207637 -1.32371,-0.224945 -4.26547,-0.224945 h -8.32287 z m 4.24894,-2.941557 1.53001,-5.710079 h 4.86212 c 2.14549,0 2.59381,0.0692 2.84591,0.48449 0.24557,0.380675 0.19252,1.020893 -0.18767,2.43976 -0.70009,2.612795 -0.97554,2.785827 -4.15507,2.785827 z"
       style="font-style:normal;font-variant:normal;font-weight:bold;font-stretch:normal;font-size:2.19043732px;line-height:1.25;font-family:'Microgramma Extd D';-inkscape-font-specification:'Microgramma Extd D, Bold';font-variant-ligatures:normal;font-variant-caps:normal;font-variant-numeric:normal;font-feature-settings:normal;text-align:start;letter-spacing:0.77845895px;word-spacing:0px;writing-mode:lr-tb;text-anchor:start;fill:#ffffff;fill-opacity:1;stroke:none;stroke-width:0.26458332"
       id="path1515"
       inkscape:connector-curvature="0" />
    <path
       d="m -423.9366,-94.108367 -3.09248,11.541282 h 12.83899 l 0.74183,-2.768524 h -9.37824 l 0.49146,-1.834146 h 8.84186 l 0.68155,-2.543581 h -8.84186 l 0.44973,-1.678417 h 9.30951 l 0.72792,-2.716614 z"
       style="font-style:normal;font-variant:normal;font-weight:bold;font-stretch:normal;font-size:2.19043732px;line-height:1.25;font-family:'Microgramma Extd D';-inkscape-font-specification:'Microgramma Extd D, Bold';font-variant-ligatures:normal;font-variant-caps:normal;font-variant-numeric:normal;font-feature-settings:normal;text-align:start;letter-spacing:0.77845895px;word-spacing:0px;writing-mode:lr-tb;text-anchor:start;fill:#ffffff;fill-opacity:1;stroke:none;stroke-width:0.26458332"
       id="path1518"
       inkscape:connector-curvature="0" />
    <path
       inkscape:connector-curvature="0"
       id="circle1524"
       d="m -601.31408,-111.89682 a 58.522753,58.522753 0 0 1 -58.5226,58.522749 58.522753,58.522753 0 0 1 -58.52261,-58.522749 58.522753,58.522753 0 0 1 58.52261,-58.52276 58.522753,58.522753 0 0 1 58.5226,58.52276 z"
       style="fill:url(#linearGradient1536);fill-opacity:1;stroke-width:0.26458332" />
    <path
       inkscape:connector-curvature="0"
       style="fill:url(#linearGradient1538);fill-opacity:1;stroke:none;stroke-width:0.26458329px;stroke-linecap:butt;stroke-linejoin:miter;stroke-opacity:1"
       d="m -634.43059,-140.00169 -10.52662,5.14012 -29.78842,0.21586 25.63324,25.74108 -24.66171,0.48568 -0.21585,20.941599 -6.94459,5.983328 27.67698,27.677049 a 58.52275,58.52275 0 0 0 51.70475,-53.306836 z"
       id="path1526" />
    <path
       class="st13"
       d="m -648.49648,-130.90307 c 1.42087,2.72482 4.26456,4.50183 7.46266,4.50183 4.62028,0 8.41101,-3.79101 8.41101,-8.41128 0,-4.62031 -3.79073,-8.41128 -8.41101,-8.41128 -3.1981,0 -5.92301,1.77701 -7.34518,4.38335 h -18.36231 c -1.42218,-2.60634 -4.14644,-4.38335 -7.34519,-4.38335 -4.62027,0 -8.411,3.79097 -8.411,8.41128 0,4.62027 3.79073,8.41128 8.411,8.41128 0.35244,0 0.58741,0 0.82955,0 l 15.51927,14.33474 h -16.34882 c -2.13294,0 -3.91016,1.777 -3.91016,3.90944 v 14.334747 c -2.60548,1.421627 -4.50084,4.146401 -4.50084,7.463548 0,4.620268 3.79073,8.411288 8.411,8.411288 4.62093,0 8.411,-3.79102 8.411,-8.411288 0,-3.198674 -1.77657,-6.041921 -4.50083,-7.463548 v -10.425247 h 14.68972 c 1.53965,2.25091 4.0283,3.67255 6.99013,3.67255 4.61897,0 8.41035,-3.79103 8.41035,-8.41129 0,-4.6203 -3.79138,-8.41132 -8.41035,-8.41132 -0.94834,0 -1.77789,0.11865 -2.72557,0.4739 l -15.28234,-14.09778 h 18.00791 z"
       id="path1528"
       inkscape:connector-curvature="0"
       style="fill:#ffffff;stroke-width:0.26458332" />
  </g>
</svg>
