<?xml version="1.0" encoding="UTF-8" standalone="no"?>
<!-- Created with Inkscape (http://www.inkscape.org/) -->

<svg
   xmlns:dc="http://purl.org/dc/elements/1.1/"
   xmlns:cc="http://creativecommons.org/ns#"
   xmlns:rdf="http://www.w3.org/1999/02/22-rdf-syntax-ns#"
   xmlns:svg="http://www.w3.org/2000/svg"
   xmlns="http://www.w3.org/2000/svg"
   xmlns:sodipodi="http://sodipodi.sourceforge.net/DTD/sodipodi-0.dtd"
   xmlns:inkscape="http://www.inkscape.org/namespaces/inkscape"
   width="1380"
   height="542.37671"
   viewBox="0 0 365.12501 143.50383"
   version="1.1"
   id="svg8"
   inkscape:version="0.92.4 (5da689c313, 2019-01-14)"
   sodipodi:docname="Monotone.svg"
   inkscape:export-filename="E:\Clients\Q1_2020\Fazt\Logo Files\Code\Full Logo\Inverted.png"
   inkscape:export-xdpi="96"
   inkscape:export-ydpi="96">
  <defs
     id="defs2" />
  <sodipodi:namedview
     id="base"
     pagecolor="#eeeeee"
     bordercolor="#666666"
     borderopacity="1.0"
     inkscape:pageopacity="0"
     inkscape:pageshadow="2"
     inkscape:zoom="0.70710678"
     inkscape:cx="744.59504"
     inkscape:cy="197.49673"
     inkscape:document-units="px"
     inkscape:current-layer="layer2"
     showgrid="false"
     fit-margin-top="50"
     fit-margin-left="50"
     fit-margin-right="50"
     fit-margin-bottom="50"
     inkscape:showpageshadow="false"
     borderlayer="true"
     inkscape:window-width="1920"
     inkscape:window-height="1017"
     inkscape:window-x="1912"
     inkscape:window-y="-8"
     inkscape:window-maximized="1"
     inkscape:snap-smooth-nodes="true"
     inkscape:snap-global="true"
     showborder="true"
     units="px"
     inkscape:snap-page="true" />
  <metadata
     id="metadata5">
    <rdf:RDF>
      <cc:Work
         rdf:about="">
        <dc:format>image/svg+xml</dc:format>
        <dc:type
           rdf:resource="http://purl.org/dc/dcmitype/StillImage" />
        <dc:title></dc:title>
      </cc:Work>
    </rdf:RDF>
  </metadata>
  <g
     inkscape:groupmode="layer"
     id="layer2"
     inkscape:label="Layer 1"
     transform="translate(731.58873,183.64874)">
    <path
       style="font-style:normal;font-variant:normal;font-weight:bold;font-stretch:normal;font-size:9.95161915px;line-height:1.25;font-family:'Microgramma Extd D';-inkscape-font-specification:'Microgramma Extd D, Bold';font-variant-ligatures:normal;font-variant-caps:normal;font-variant-numeric:normal;font-feature-settings:normal;text-align:start;letter-spacing:0px;word-spacing:0px;writing-mode:lr-tb;text-anchor:start;fill:#000000;fill-opacity:1;stroke:none;stroke-width:0.26458332"
       d="m -577.70863,-145.85003 -11.17062,41.68632 h 12.68811 l 3.86836,-14.43848 h 20.12309 l 7.61982,-9.5608 h -25.18032 l 2.10994,-7.87305 h 29.3465 l 7.82362,-9.81399 z m 54.08918,0 -33.23223,41.68632 h 14.49708 l 5.45537,-7.06181 h 27.56358 l 1.66679,7.06181 h 14.43942 l -10.64294,-41.68632 z m 26.05005,0 2.64079,10.3461 37.36839,-0.34718 -33.28437,20.28329 2.91174,11.40415 h 43.32142 l 2.79641,-10.43679 -31.55518,0.4381 36.42757,-22.12334 2.56258,-9.56403 z m 67.44084,0 -2.53967,9.48298 h 18.56214 l -8.62857,32.20334 h 13.31058 l 8.63016,-32.20334 h 18.56136 l 2.53968,-9.48298 z m -87.52601,9.68739 h 2.49939 l 3.82492,15.8111 h -18.62219 z"
       id="path1507"
       inkscape:connector-curvature="0" />
    <path
       style="opacity:1;vector-effect:none;fill:#000000;fill-opacity:1;fill-rule:nonzero;stroke:none;stroke-width:3.99999928;stroke-linecap:round;stroke-linejoin:miter;stroke-miterlimit:4;stroke-dasharray:none;stroke-dashoffset:0;stroke-opacity:1;marker:none;paint-order:normal"
       d="M 533.67773 321.6582 L 513.00195 398.80273 L 1261.4141 398.80273 L 1282.0898 321.6582 L 533.67773 321.6582 z M 936.88281 337.76562 C 948.12963 337.76562 952.07911 338.15888 954.70312 339.59766 C 958.18971 341.4942 958.76545 344.69878 956.83789 351.89258 L 956.25977 354.05078 L 942.98438 354.05078 C 943.54866 351.50026 943.58688 350.91079 943.24219 350.19141 C 942.75486 349.07965 939.19739 348.6875 930.17188 348.6875 C 921.86885 348.6875 919.38312 348.94972 917.78906 349.99609 C 915.85621 351.30406 914.66441 353.85376 912.89453 360.45898 C 909.89805 371.6421 910.06106 371.77344 924.05469 371.77344 C 938.6036 371.77344 938.91949 371.7088 940.6543 365.23438 L 954.14844 365.23438 C 953.48256 367.7195 953.22029 368.69954 953.04492 369.35352 C 951.20497 376.22033 948.57827 379.42559 943.62891 381.06055 C 939.7815 382.23772 934.81928 382.69531 924.81445 382.69531 C 908.20245 382.69531 902.85011 382.17098 899.74609 380.33984 C 896.98727 378.70489 896.20697 376.15486 897.01367 371.25 C 897.24082 369.28805 898.20353 365.69185 899.58789 360.52539 C 902.30401 350.38867 903.58017 346.85624 905.29102 344.37109 C 909.25 338.87766 914.38612 337.76562 936.88281 337.76562 z M 1018.543 337.76562 C 1036.7911 337.76562 1040.7235 338.22486 1043.375 340.77539 C 1046.0235 343.32592 1045.8352 347.70621 1042.4883 360.19727 C 1039.1238 372.75372 1036.9676 377.13697 1032.9492 379.6875 C 1028.9309 382.23803 1024.6878 382.69531 1006.6367 382.69531 C 988.26022 382.69531 984.32731 382.23803 981.67578 379.6875 C 978.98506 377.07157 979.21582 372.75359 982.65039 359.93555 C 985.90974 347.77148 988.08516 343.32592 992.10352 340.77539 C 996.12187 338.22486 1000.3635 337.76562 1018.543 337.76562 z M 1076.8145 338.41992 L 1108.2715 338.41992 C 1119.3899 338.41992 1120.8738 338.48476 1124.3926 339.26953 C 1128.482 340.11971 1130.685 342.60547 1130.9121 346.66016 C 1131.0439 349.73387 1130.6073 352.48096 1128.6973 359.60938 C 1125.6482 370.98866 1123.4745 375.43598 1119.4824 378.37891 C 1115.3414 381.38724 1111.3049 382.04102 1096.5918 382.04102 L 1065.1348 382.04102 L 1076.8145 338.41992 z M 1162.7793 338.41992 L 1211.0449 338.41992 L 1208.2949 348.6875 L 1173.1094 348.6875 L 1171.4082 355.03125 L 1204.8262 355.03125 L 1202.25 364.64453 L 1168.832 364.64453 L 1166.9746 371.57812 L 1202.4199 371.57812 L 1199.6172 382.04102 L 1151.0918 382.04102 L 1162.7793 338.41992 z M 1015.4824 349.08008 C 1006.4599 349.08008 1004.6001 349.1448 1002.6387 349.66797 C 999.13861 350.51814 997.87935 352.54625 995.51367 361.375 C 994.05935 366.80305 994.06279 368.56799 995.22266 369.81055 C 996.61915 371.18393 998.65938 371.38086 1009.6465 371.38086 C 1020.3082 371.38086 1022.6001 371.11852 1024.6523 369.81055 C 1026.4904 368.63338 1027.4458 366.73866 1028.8652 361.44141 C 1030.5475 355.16318 1030.8844 352.67799 1030.123 351.17383 C 1029.2579 349.27724 1027.8065 349.08008 1015.5117 349.08008 L 1015.4824 349.08008 z M 1086.9766 349.3418 L 1081.1953 370.92383 L 1099.6973 370.92383 C 1111.7144 370.92383 1112.7544 370.26966 1115.4004 360.39453 C 1116.8373 355.03188 1117.0375 352.6126 1116.1094 351.17383 C 1115.1566 349.60423 1113.4625 349.3418 1105.3535 349.3418 L 1086.9766 349.3418 z "
       transform="matrix(0.26458333,0,0,0.26458333,-731.58873,-183.64874)"
       id="path1509" />
    <path
       style="fill:#000000;fill-opacity:1;stroke-width:0.99999994"
       d="M 271.18945 50 A 221.18836 221.18836 0 0 0 50.001953 271.1875 A 221.18836 221.18836 0 0 0 271.18945 492.37695 A 221.18836 221.18836 0 0 0 492.37695 271.1875 A 221.18836 221.18836 0 0 0 271.18945 50 z M 217.33203 152.78711 C 229.4218 152.78711 239.71663 159.50278 245.0918 169.35352 L 314.49414 169.35352 C 319.86927 159.50278 330.1666 152.78711 342.25391 152.78711 C 359.71638 152.78711 374.04492 167.11554 374.04492 184.57812 C 374.04492 202.04056 359.71638 216.36914 342.25391 216.36914 C 330.1666 216.36914 319.41905 209.65205 314.04883 199.35352 L 314.04883 198.90625 L 245.98828 198.90625 L 303.74805 252.18945 C 307.32983 250.84678 310.46455 250.39844 314.04883 250.39844 C 331.50635 250.39844 345.83594 264.7269 345.83594 282.18945 C 345.83594 299.65185 331.50635 313.97852 314.04883 313.97852 C 302.85451 313.97852 293.45001 308.60699 287.63086 300.09961 L 232.10938 300.09961 L 232.10938 339.50195 C 242.40579 344.87503 249.12109 355.62146 249.12109 367.71094 C 249.12109 385.17337 234.79696 399.5 217.33203 399.5 C 199.86959 399.5 185.54102 385.17337 185.54102 367.71094 C 185.54102 355.17369 192.70525 344.87503 202.55273 339.50195 L 202.55273 285.32227 C 202.55273 277.26265 209.27053 270.54688 217.33203 270.54688 L 279.12305 270.54688 L 220.4668 216.36914 L 217.33203 216.36914 C 199.86959 216.36914 185.54102 202.04056 185.54102 184.57812 C 185.54102 167.11554 199.86959 152.78711 217.33203 152.78711 z "
       transform="matrix(0.26458333,0,0,0.26458333,-731.58873,-183.64874)"
       id="circle1524" />
  </g>
</svg>
