<?xml version="1.0" encoding="UTF-8" standalone="no"?>
<!-- Created with Inkscape (http://www.inkscape.org/) -->

<svg
   xmlns:dc="http://purl.org/dc/elements/1.1/"
   xmlns:cc="http://creativecommons.org/ns#"
   xmlns:rdf="http://www.w3.org/1999/02/22-rdf-syntax-ns#"
   xmlns:svg="http://www.w3.org/2000/svg"
   xmlns="http://www.w3.org/2000/svg"
   xmlns:sodipodi="http://sodipodi.sourceforge.net/DTD/sodipodi-0.dtd"
   xmlns:inkscape="http://www.inkscape.org/namespaces/inkscape"
   width="1380"
   height="542.36682"
   viewBox="0 0 365.12501 143.50122"
   version="1.1"
   id="svg8"
   inkscape:version="0.92.4 (5da689c313, 2019-01-14)"
   sodipodi:docname="Monotone.svg"
   inkscape:export-filename="E:\Clients\Q1_2020\Fazt\Logo Files\Tech\Full Logo\Inverted.png"
   inkscape:export-xdpi="96"
   inkscape:export-ydpi="96">
  <defs
     id="defs2" />
  <sodipodi:namedview
     id="base"
     pagecolor="#eeeeee"
     bordercolor="#666666"
     borderopacity="1.0"
     inkscape:pageopacity="0"
     inkscape:pageshadow="2"
     inkscape:zoom="0.70710678"
     inkscape:cx="683.6065"
     inkscape:cy="179.18398"
     inkscape:document-units="px"
     inkscape:current-layer="layer2"
     showgrid="false"
     fit-margin-top="50"
     fit-margin-left="50"
     fit-margin-right="50"
     fit-margin-bottom="50"
     inkscape:showpageshadow="false"
     borderlayer="true"
     inkscape:window-width="1920"
     inkscape:window-height="1017"
     inkscape:window-x="1912"
     inkscape:window-y="-8"
     inkscape:window-maximized="1"
     inkscape:snap-smooth-nodes="true"
     inkscape:snap-global="true"
     showborder="true"
     units="px"
     inkscape:snap-page="true" />
  <metadata
     id="metadata5">
    <rdf:RDF>
      <cc:Work
         rdf:about="">
        <dc:format>image/svg+xml</dc:format>
        <dc:type
           rdf:resource="http://purl.org/dc/dcmitype/StillImage" />
        <dc:title></dc:title>
      </cc:Work>
    </rdf:RDF>
  </metadata>
  <g
     inkscape:groupmode="layer"
     id="layer2"
     inkscape:label="Layer 1"
     transform="translate(718.35953,48.150249)">
    <path
       style="opacity:1;vector-effect:none;fill:#000000;fill-opacity:1;fill-rule:nonzero;stroke:none;stroke-width:12;stroke-linecap:round;stroke-linejoin:round;stroke-miterlimit:4;stroke-dasharray:none;stroke-dashoffset:0;stroke-opacity:1;marker:none;paint-order:normal"
       d="M 271.1875 50 A 221.1848 221.1848 0 0 0 50 271.17969 A 221.1848 221.1848 0 0 0 271.1875 492.36719 A 221.1848 221.1848 0 0 0 492.37695 271.17969 A 221.1848 221.1848 0 0 0 271.1875 50 z M 271.19141 130.875 A 26.849502 38.036005 0 0 1 298.03711 168.91016 A 26.849502 38.036005 0 0 1 294.5957 187.52148 A 35.574973 42.473533 0 0 0 306.75977 155.59766 A 35.574973 42.473533 0 0 0 303.71875 138.47461 A 137.57985 136.72574 0 0 1 375.39258 182.00391 C 368.36466 188.5242 350.41911 200.54491 330.57617 207.18164 C 351.14682 204.38352 369.5789 199.55677 384.20703 193.18164 C 399.11882 196.57029 410.32245 201.61606 413.57617 209.87695 C 420.79651 228.18792 424.68288 247.55079 424.92969 267.21484 L 424.92969 267.29492 C 424.72741 287.36884 420.84968 307.23856 413.06445 325.76367 C 412.15914 327.92861 410.79245 329.87141 409.04102 331.45312 C 391.72405 347.1664 368.57726 359.1826 341.625 366.74219 C 334.3208 368.79018 326.75619 369.58645 319.32617 369.44336 C 325.25145 370.75743 331.3296 371.45926 337.40039 371.33594 C 348.01009 371.1215 358.18478 370.12477 367.83984 368.39258 A 137.57985 136.72574 0 0 1 271.19727 407.88672 A 137.57985 136.72574 0 0 1 174.66406 368.41602 C 184.28213 370.13735 194.43131 371.12134 204.99414 371.33594 C 211.06743 371.45212 217.14558 370.75891 223.06836 369.44336 C 215.63588 369.59189 208.06302 368.79235 200.75391 366.74219 C 173.79915 359.1826 150.6529 347.1664 133.33594 331.45312 C 131.60178 329.87146 130.22131 327.92854 129.30859 325.76367 C 121.52337 307.23888 117.69407 287.36884 117.44727 267.29492 L 117.44727 267.21484 C 117.44727 247.55079 121.58095 228.18792 128.79883 209.87695 C 132.055 201.61569 143.2649 196.5759 158.18164 193.1875 C 172.80486 199.56041 191.24141 204.38409 211.80469 207.18164 C 192.10235 200.59225 174.28295 188.70068 167.14648 182.14844 A 137.57985 136.72574 0 0 1 238.61328 138.64258 A 35.574973 42.473533 0 0 0 235.61523 155.59766 A 35.574973 42.473533 0 0 0 247.84961 187.60742 A 26.849502 38.036005 0 0 1 244.34766 168.91016 A 26.849502 38.036005 0 0 1 271.19141 130.875 z M 398.5918 215.94141 C 370.90196 232.8537 323.1999 243.38294 271.19727 243.41016 C 219.18972 243.36546 171.49257 232.85855 143.80273 215.94727 A 137.55308 136.62074 0 0 0 133.64648 267.24805 A 137.55308 136.62074 0 0 0 144.25586 319.54883 C 159.25896 333.16148 180.21298 344.24139 205.15234 351.23438 C 218.22883 354.90172 235.93418 353.74111 243.98828 348.32031 C 252.9921 342.25997 260.31623 339.75573 271.19727 339.72852 C 282.07588 339.77317 289.39748 342.25997 298.40625 348.32031 C 306.46035 353.74111 324.1627 354.9014 337.24414 351.23438 C 362.24764 344.22217 383.25175 333.10351 398.25977 319.43945 A 137.55308 136.62074 0 0 0 408.75195 267.24805 A 137.55308 136.62074 0 0 0 398.5918 215.94141 z M 193.56836 245.23242 C 205.51012 247.94565 218.27088 250.00181 231.61133 251.36719 L 207.31055 341.47656 C 193.96515 337.69042 181.95154 332.67364 171.57617 326.80273 L 193.56836 245.23242 z M 242.76562 252.35352 C 247.18117 252.67297 251.65134 252.90844 256.1582 253.07617 L 232.11133 342.2793 C 230.21189 342.71962 228.01679 343.08863 225.72266 343.25391 C 223.31011 343.40267 220.77005 343.42504 218.25391 343.25977 L 242.76562 252.35352 z "
       transform="matrix(0.26458334,0,0,0.26458334,-718.35953,-48.150249)"
       id="path1482" />
    <path
       style="font-style:normal;font-variant:normal;font-weight:bold;font-stretch:normal;font-size:9.95161915px;line-height:1.25;font-family:'Microgramma Extd D';-inkscape-font-specification:'Microgramma Extd D, Bold';font-variant-ligatures:normal;font-variant-caps:normal;font-variant-numeric:normal;font-feature-settings:normal;text-align:start;letter-spacing:0px;word-spacing:0px;writing-mode:lr-tb;text-anchor:start;fill:#000000;fill-opacity:1;stroke:none;stroke-width:0.26458332"
       d="m -564.47972,-4.6588731 -11.17064,41.6863971 h 12.68813 l 3.86838,-14.438507 h 20.12311 l 7.61984,-9.560819 h -25.18037 l 2.10995,-7.8730657 h 29.34655 l 7.82364,-9.8140054 z m 54.08928,0 -33.2323,41.6863971 h 14.49712 l 5.45537,-7.061829 h 27.56364 l 1.66678,7.061829 h 14.43945 l -10.64296,-41.6863971 z m 26.05009,0 2.6408,10.3461219 37.36845,-0.3471819 -33.28443,20.2833271 2.91175,11.40417 h 43.3215 l 2.79641,-10.436816 -31.55523,0.438105 36.42763,-22.1233756 2.56259,-9.5640503 z m 67.44096,0 -2.53968,9.4829938 h 18.56219 l -8.6286,32.2034033 h 13.31061 l 8.63018,-32.2034033 h 18.56139 l 2.53968,-9.4829938 z m -87.52616,9.6874085 h 2.49939 l 3.82493,15.8111276 h -18.62222 z"
       id="path1486"
       inkscape:connector-curvature="0" />
    <path
       style="opacity:1;vector-effect:none;fill:#000000;fill-opacity:1;fill-rule:nonzero;stroke:none;stroke-width:3.99999928;stroke-linecap:round;stroke-linejoin:miter;stroke-miterlimit:4;stroke-dasharray:none;stroke-dashoffset:0;stroke-opacity:1;marker:none;paint-order:normal"
       d="M 533.67773 343.17578 L 513.00391 420.31836 L 1261.418 420.31836 L 1282.0918 343.17578 L 533.67773 343.17578 z M 1102.7324 359.28125 C 1113.9823 359.28125 1117.9317 359.67451 1120.5527 361.11328 C 1124.0393 363.00984 1124.6131 366.21439 1122.6855 373.4082 L 1122.1074 375.56641 L 1108.832 375.56641 C 1109.3963 373.01591 1109.4345 372.42627 1109.0898 371.70703 C 1108.6025 370.59518 1105.046 370.20312 1096.0234 370.20312 C 1087.7174 370.20313 1085.2308 370.46526 1083.6367 371.51172 C 1081.7337 372.81967 1080.514 375.36936 1078.7441 381.97461 C 1075.7478 393.15712 1075.9096 393.28906 1089.9062 393.28906 C 1104.4524 393.28906 1104.7671 393.22446 1106.502 386.75 L 1120 386.75 C 1119.3341 389.23518 1119.0719 390.21529 1118.8965 390.86914 C 1117.0565 397.73596 1114.4328 400.94124 1109.4805 402.57617 C 1105.636 403.7534 1100.6738 404.21094 1090.666 404.21094 C 1074.054 404.21094 1068.7047 403.68656 1065.5977 401.85547 C 1062.8388 400.22054 1062.0884 397.67048 1062.8652 392.76562 C 1063.0924 390.80368 1064.0551 387.20749 1065.4395 382.04102 C 1068.1556 371.90427 1069.4297 368.37195 1071.1406 365.88672 C 1075.0966 360.39334 1080.2357 359.28125 1102.7324 359.28125 z M 916.20508 359.93555 L 968.98047 359.93555 L 966 371.05469 L 946.57812 371.05469 L 937.86914 403.55664 L 923.93945 403.55664 L 932.64844 371.05469 L 913.22656 371.05469 L 916.20508 359.93555 z M 995.91016 359.93555 L 1044.1758 359.93555 L 1041.4238 370.20312 L 1006.2383 370.20312 L 1004.5391 376.54688 L 1037.9609 376.54688 L 1035.3848 386.16016 L 1001.9629 386.16016 L 1000.1055 393.09375 L 1035.5547 393.09375 L 1032.75 403.55664 L 984.22266 403.55664 L 995.91016 359.93555 z M 1154.7988 359.93555 L 1168.7266 359.93555 L 1164.5391 375.56641 L 1194.5586 375.56641 L 1198.748 359.93555 L 1212.6758 359.93555 L 1200.9863 403.55664 L 1187.0586 403.55664 L 1191.2832 387.79688 L 1161.2617 387.79688 L 1157.0391 403.55664 L 1143.1113 403.55664 L 1154.7988 359.93555 z "
       transform="matrix(0.26458334,0,0,0.26458334,-718.35953,-48.150249)"
       id="path1488" />
  </g>
</svg>
